<?xml version="1.0" encoding="UTF-8" standalone="no"?>
<!-- Created with Inkscape (http://www.inkscape.org/) -->

<svg
   width="50mm"
   height="50mm"
   viewBox="0 0 50 50"
   version="1.1"
   id="svg1"
   inkscape:version="1.3 (0e150ed6c4, 2023-07-21)"
   sodipodi:docname="last.svg"
   xmlns:inkscape="http://www.inkscape.org/namespaces/inkscape"
   xmlns:sodipodi="http://sodipodi.sourceforge.net/DTD/sodipodi-0.dtd"
   xmlns="http://www.w3.org/2000/svg"
   xmlns:svg="http://www.w3.org/2000/svg">
  <sodipodi:namedview
     id="namedview1"
     pagecolor="#ffffff"
     bordercolor="#000000"
     borderopacity="0.25"
     inkscape:showpageshadow="2"
     inkscape:pageopacity="0.0"
     inkscape:pagecheckerboard="0"
     inkscape:deskcolor="#d1d1d1"
     inkscape:document-units="mm"
     inkscape:zoom="4.0063432"
     inkscape:cx="109.07703"
     inkscape:cy="82.49418"
     inkscape:window-width="1920"
     inkscape:window-height="991"
     inkscape:window-x="-9"
     inkscape:window-y="-9"
     inkscape:window-maximized="1"
     inkscape:current-layer="svg1" />
  <defs
     id="defs1">
    <rect
       x="179.32076"
       y="249.91948"
       width="327.57806"
       height="127.0777"
       id="rect2" />
  </defs>
  <path
     id="rect5"
     style="fill:#000000;fill-opacity:1;stroke:none;stroke-width:0.984999;stroke-linecap:round;stroke-linejoin:round;stroke-dasharray:none;stroke-opacity:1"
     d="M 6.1758504 15.36392 C 5.2121659 15.36392 4.4364217 16.176039 4.4364217 17.184998 L 4.4364217 33.809306 C 4.4364217 34.818264 5.2121659 35.6309 6.1758504 35.6309 L 42.997375 35.6309 C 43.96106 35.6309 44.736804 34.818264 44.736804 33.809306 L 44.736804 17.184998 C 44.736804 16.176039 43.96106 15.36392 42.997375 15.36392 L 6.1758504 15.36392 z M 29.587341 20.570321 C 30.302305 20.570321 30.928009 20.711329 31.464229 20.993551 C 32.000451 21.266364 32.414385 21.604992 32.706014 22.009509 C 32.997645 22.414029 33.152805 22.785505 33.171619 23.12417 C 33.18102 23.208837 33.152715 23.284143 33.086869 23.349996 C 33.021018 23.40644 32.94571 23.434745 32.861043 23.434745 L 32.282784 23.434745 C 32.169897 23.434745 32.08498 23.416049 32.028536 23.378418 C 31.972092 23.331382 31.910938 23.246467 31.845085 23.12417 C 31.694567 22.832541 31.431247 22.545462 31.054952 22.263241 C 30.688063 21.981019 30.198823 21.840011 29.587341 21.840011 C 29.022899 21.840011 28.543263 21.967383 28.148153 22.221383 C 27.762449 22.475382 27.569893 22.837251 27.569893 23.307621 C 27.569893 23.627472 27.663898 23.890792 27.852047 24.097754 C 28.049602 24.295309 28.341227 24.469685 28.726929 24.620203 C 29.122039 24.761314 29.714377 24.935171 30.504598 25.142135 C 31.577041 25.424357 32.334664 25.772591 32.776811 26.186515 C 33.228366 26.591033 33.453772 27.145975 33.453772 27.85153 C 33.453772 28.415974 33.294066 28.914306 32.974215 29.347046 C 32.663771 29.779786 32.221531 30.118412 31.647681 30.363005 C 31.07383 30.607596 30.41073 30.729907 29.658138 30.729907 C 28.961992 30.729907 28.326679 30.598506 27.752828 30.335099 C 27.178976 30.071693 26.727646 29.737611 26.398389 29.333093 C 26.069129 28.919167 25.89527 28.509779 25.876457 28.105261 C 25.876457 28.020595 25.904762 27.950349 25.961206 27.893905 C 26.027057 27.828053 26.101849 27.795203 26.186515 27.795203 L 26.765291 27.795203 C 26.868773 27.795203 26.953688 27.818447 27.019539 27.865483 C 27.085392 27.903113 27.146546 27.982966 27.202991 28.105261 C 27.353509 28.443928 27.625918 28.754765 28.021029 29.036987 C 28.425546 29.319209 28.971399 29.460217 29.658138 29.460217 C 30.344877 29.460217 30.923579 29.314148 31.393949 29.022518 C 31.873727 28.721482 32.113285 28.331307 32.113285 27.85153 C 32.113285 27.541086 31.98643 27.282312 31.73243 27.07535 C 31.487837 26.858979 31.149211 26.68006 30.716471 26.538949 C 30.283732 26.388431 29.64842 26.204965 28.811161 25.988595 C 27.898644 25.75341 27.240606 25.414782 26.836088 24.972636 C 26.431571 24.521081 26.22889 23.966139 26.22889 23.307621 C 26.22889 22.818437 26.356262 22.367108 26.610262 21.953182 C 26.864262 21.539258 27.244828 21.205176 27.752828 20.951176 C 28.260826 20.697176 28.87238 20.570321 29.587341 20.570321 z M 9.3524007 20.711397 L 9.93066 20.711397 C 10.034142 20.711397 10.123603 20.748792 10.198861 20.824052 C 10.27412 20.89931 10.311515 20.988771 10.311515 21.092253 L 10.311515 29.319141 L 15.095203 29.319141 C 15.198685 29.319141 15.288145 29.356535 15.363403 29.431795 C 15.438663 29.507055 15.476575 29.596516 15.476575 29.699996 L 15.476575 30.207975 C 15.476575 30.311457 15.438663 30.400918 15.363403 30.476176 C 15.288145 30.551436 15.198685 30.588831 15.095203 30.588831 L 9.3524007 30.588831 C 9.2489188 30.588831 9.1594598 30.551436 9.0842 30.476176 C 9.008942 30.400918 8.9710286 30.311457 8.9710286 30.207975 L 8.9710286 21.092253 C 8.9710286 20.988771 9.008942 20.89931 9.0842 20.824052 C 9.1594598 20.748792 9.2489188 20.711397 9.3524007 20.711397 z M 20.119185 20.711397 L 20.965645 20.711397 C 21.266683 20.711397 21.478453 20.866558 21.600749 21.177002 L 25.043949 30.080851 C 25.081578 30.165518 25.100277 30.231734 25.100277 30.278772 C 25.100277 30.363439 25.067426 30.438747 25.001575 30.504598 C 24.94513 30.561042 24.874368 30.588831 24.789701 30.588831 L 24.267769 30.588831 C 23.985549 30.588831 23.802082 30.471582 23.717415 30.236397 L 22.98361 28.359509 L 18.086751 28.359509 L 17.352946 30.236397 C 17.268279 30.471582 17.085331 30.588831 16.803109 30.588831 L 16.28066 30.588831 C 16.195993 30.588831 16.120687 30.561042 16.054834 30.504598 C 15.99839 30.438747 15.970085 30.363439 15.970085 30.278772 C 15.970085 30.231734 15.989298 30.165518 16.026929 30.080851 L 19.484082 21.177002 C 19.606379 20.866558 19.81815 20.711397 20.119185 20.711397 z M 34.766353 20.711397 L 41.384554 20.711397 C 41.488034 20.711397 41.577495 20.748792 41.652755 20.824052 C 41.728014 20.89931 41.765409 20.988771 41.765409 21.092253 L 41.765409 21.600232 C 41.765409 21.703712 41.728014 21.793173 41.652755 21.868433 C 41.577495 21.943692 41.488034 21.981087 41.384554 21.981087 L 38.745439 21.981087 L 38.745439 30.207975 C 38.745439 30.311457 38.708044 30.400918 38.632784 30.476176 C 38.557526 30.551436 38.468065 30.588831 38.364583 30.588831 L 37.786324 30.588831 C 37.682842 30.588831 37.593383 30.551436 37.518123 30.476176 C 37.442865 30.400918 37.404952 30.311457 37.404952 30.207975 L 37.404952 21.981087 L 34.766353 21.981087 C 34.662871 21.981087 34.573411 21.943692 34.498153 21.868433 C 34.422893 21.793173 34.385498 21.703712 34.385498 21.600232 L 34.385498 21.092253 C 34.385498 20.988771 34.422893 20.89931 34.498153 20.824052 C 34.573411 20.748792 34.662871 20.711397 34.766353 20.711397 z M 20.542415 22.051884 L 18.580778 27.089303 L 22.489583 27.089303 L 20.542415 22.051884 z " />
  <g
     inkscape:label="Calque 1"
     inkscape:groupmode="layer"
     id="layer1" />
</svg>
